<?xml version="1.0" encoding="UTF-8" standalone="no"?>
<!-- Created with Inkscape (http://www.inkscape.org/) -->

<svg
   width="100mm"
   height="100mm"
   viewBox="0 0 100 100"
   version="1.1"
   id="svg5"
   inkscape:version="1.1.2 (0a00cf5339, 2022-02-04)"
   sodipodi:docname="holodb.svg"
   xmlns:inkscape="http://www.inkscape.org/namespaces/inkscape"
   xmlns:sodipodi="http://sodipodi.sourceforge.net/DTD/sodipodi-0.dtd"
   xmlns="http://www.w3.org/2000/svg"
   xmlns:svg="http://www.w3.org/2000/svg">
  <sodipodi:namedview
     id="namedview7"
     pagecolor="#ffffff"
     bordercolor="#666666"
     borderopacity="1.0"
     inkscape:pageshadow="2"
     inkscape:pageopacity="0.0"
     inkscape:pagecheckerboard="0"
     inkscape:document-units="mm"
     showgrid="false"
     width="100mm"
     inkscape:zoom="0.70710678"
     inkscape:cx="-65.053824"
     inkscape:cy="53.740115"
     inkscape:window-width="1920"
     inkscape:window-height="1025"
     inkscape:window-x="0"
     inkscape:window-y="0"
     inkscape:window-maximized="1"
     inkscape:current-layer="layer1" />
  <defs
     id="defs2" />
  <g
     inkscape:label="Réteg 1"
     inkscape:groupmode="layer"
     id="layer1">
    <path
       id="path31"
       style="fill:#ff2a2a;stroke-width:0.298339"
       d="m 53.715583,9.8386762 -0.106971,3.0602798 a 33.360415,11.669707 0 0 1 15.635221,2.009698 l 1.393198,-2.814301 A 38.566735,15.195637 0 0 0 53.715583,9.8386762 Z m -7.087938,5.168e-4 a 38.566735,15.195637 0 0 0 -17.152443,2.317689 l 1.415936,2.861326 a 33.360415,11.669707 0 0 1 15.865181,-2.111501 z m 28.634943,3.597198 -1.548741,2.767274 a 33.360415,11.669707 0 0 1 9.934792,8.305436 33.360415,11.669707 0 0 1 -10.48153,8.493021 v 4.153236 a 38.566735,15.195637 0 0 0 10.48153,-4.659664 v 9.786998 c 9.8e-5,1.172089 -0.495708,2.303283 -1.414899,3.370339 v 5.480286 l 6.493142,-4.806426 v -21.358386 -0.04909 l -0.0026,-0.0016 A 38.566735,15.195637 0 0 0 75.262588,13.436391 Z m -50.39899,0.0801 A 38.566735,15.195637 0 0 0 11.646317,24.647594 l -0.05323,0.04341 c 0,0.04417 -1e-6,0.232139 0,0.277503 5.2e-5,3.843973 0.0023,12.393464 0.0036,21.39611 l 6.45542,4.778521 V 45.28716 c -0.728691,-0.958834 -1.124575,-1.965264 -1.124479,-3.004468 -3.57e-4,-3.446975 3.32e-4,-6.463479 0,-9.617501 a 38.566735,15.195637 0 0 0 10.945067,4.677752 V 33.148884 A 33.360415,11.669707 0 0 1 16.927628,24.509101 33.360415,11.669707 0 0 1 26.44901,16.348359 Z M 66.882221,34.632515 A 33.360415,11.669707 0 0 1 50.287885,36.17919 33.360415,11.669707 0 0 1 34.157605,34.713647 v 4.05815 a 38.566735,15.195637 0 0 0 16.00264,1.392163 38.566735,15.195637 0 0 0 16.721976,-1.506368 z M 22.489583,48.735012 v 4.584216 c 6.02148,2.442816 14.10475,4.091514 23.148456,4.508254 V 53.837544 C 35.984113,53.366308 27.65371,51.450862 22.489583,48.735012 Z m 55.3067,0.148828 c -5.239377,2.664695 -13.561457,4.530233 -23.167578,4.967139 v 3.978053 c 9.045496,-0.41179 17.137965,-2.053852 23.167578,-4.492233 z m 10.930599,2.042771 -5.078243,3.895884 v 2.572454 c 2.75e-4,3.347018 -4.028816,6.364475 -10.48153,8.492505 v 4.158401 c 4.2535,-1.249339 7.833561,-2.835182 10.48153,-4.65863 v 9.182902 l 5.078243,-3.755843 z m -77.129657,0.03927 c 7e-4,6.993308 1.93e-4,13.786895 -0.0021,19.690273 l 5.332491,3.943943 c 7.07e-4,-2.688966 -4.04e-4,-6.009889 0,-9.036656 2.770252,1.849871 6.517165,3.442353 10.945067,4.681884 v -4.207494 c -6.723375,-2.134984 -10.945385,-5.216255 -10.945067,-8.642884 4e-6,-0.839473 -1.8e-5,-1.585389 0,-2.339393 z m 55.284996,16.555064 c -4.887476,0.98221 -10.553269,1.544114 -16.594336,1.54409 -5.851908,-1.1e-5 -11.349021,-0.528852 -16.13028,-1.45469 v 4.063833 c 4.876501,0.87879 10.288862,1.375651 16.00264,1.375627 5.993638,-5e-6 11.663836,-0.541007 16.721976,-1.502751 z m -55.288097,5.6534 c -4.26e-4,0.806066 -4.98e-4,1.865471 -0.001,2.603976 h 5.16e-4 c 0.0051,3.1092 2.386233,5.997882 6.458521,8.404137 v -5.868892 c -0.03253,-0.04281 -0.06388,-0.08568 -0.09509,-0.128675 z m 77.132758,0.168981 -6.040459,4.756301 c -0.137138,0.195254 -0.287922,0.38854 -0.452683,0.579808 v 5.526796 c 4.10019,-2.413336 6.493047,-5.314992 6.493142,-8.437729 z M 22.489583,81.76142 v 4.587316 c 6.021128,2.442605 14.106125,4.091374 23.148456,4.507736 v -3.99252 C 35.984113,86.392715 27.65371,84.47727 22.489583,81.76142 Z m 55.3067,0.148828 c -5.239377,2.664695 -13.561457,4.530233 -23.167578,4.967139 v 3.98167 c 9.045803,-0.411491 17.138325,-2.055466 23.167578,-4.494816 z" />
  </g>
</svg>
